<svg xmlns="http://www.w3.org/2000/svg" width="17.5" height="15" viewBox="0 0 17.5 15"><defs><style>.a{fill:#fff;}</style></defs><path class="a" d="M16.25-8.75H1.215A1.242,1.242,0,0,0,0-7.5,1.242,1.242,0,0,0,1.215-6.25h15A1.257,1.257,0,0,0,17.5-7.5,1.249,1.249,0,0,0,16.25-8.75Zm0,6.25H1.215A1.235,1.235,0,0,0,0-1.285,1.3,1.3,0,0,0,1.215,0h15A1.257,1.257,0,0,0,17.5-1.25,1.249,1.249,0,0,0,16.25-2.5Zm0-12.5H1.215A1.236,1.236,0,0,0,0-13.785,1.3,1.3,0,0,0,1.215-12.5h15A1.257,1.257,0,0,0,17.5-13.75,1.249,1.249,0,0,0,16.25-15Z" transform="translate(0 15)"/></svg>